HIERARCHY
ROOT Hips
{
	OFFSET 0.00000 0.00000 0.00000
	CHANNELS 6 Xposition Yposition Zposition Zrotation Yrotation Xrotation 
	JOINT LHipJoint
	{
		OFFSET 0 0 0
		CHANNELS 3 Zrotation Yrotation Xrotation
		JOINT LeftUpLeg
		{
			OFFSET 1.40252 -1.71424 0.59123
			CHANNELS 3 Zrotation Yrotation Xrotation
			JOINT LeftLeg
			{
				OFFSET 2.50071 -6.87065 0.00000
				CHANNELS 3 Zrotation Yrotation Xrotation
				JOINT LeftFoot
				{
					OFFSET 2.50834 -6.89162 0.00000
					CHANNELS 3 Zrotation Yrotation Xrotation
					JOINT LeftToeBase
					{
						OFFSET 0.21528 -0.59149 1.64448
						CHANNELS 3 Zrotation Yrotation Xrotation
						End Site
						{
							OFFSET 0.00000 -0.00000 0.87921
						}
					}
				}
			}
		}
	}
	JOINT RHipJoint
	{
		OFFSET 0 0 0
		CHANNELS 3 Zrotation Yrotation Xrotation
		JOINT RightUpLeg
		{
			OFFSET -1.53651 -1.71424 0.59123
			CHANNELS 3 Zrotation Yrotation Xrotation
			JOINT RightLeg
			{
				OFFSET -2.45783 -6.75285 0.00000
				CHANNELS 3 Zrotation Yrotation Xrotation
				JOINT RightFoot
				{
					OFFSET -2.51921 -6.92147 0.00000
					CHANNELS 3 Zrotation Yrotation Xrotation
					JOINT RightToeBase
					{
						OFFSET -0.21777 -0.59831 1.59676
						CHANNELS 3 Zrotation Yrotation Xrotation
						End Site
						{
							OFFSET -0.00000 -0.00000 0.85779
						}
					}
				}
			}
		}
	}
	JOINT LowerBack
	{
		OFFSET 0 0 0
		CHANNELS 3 Zrotation Yrotation Xrotation
		JOINT Spine
		{
			OFFSET 0.02212 2.07622 0.03776
			CHANNELS 3 Zrotation Yrotation Xrotation
			JOINT Spine1
			{
				OFFSET -0.00949 2.08009 -0.00123
				CHANNELS 3 Zrotation Yrotation Xrotation
				JOINT Neck
				{
					OFFSET 0 0 0
					CHANNELS 3 Zrotation Yrotation Xrotation
					JOINT Neck1
					{
						OFFSET 0.00288 1.67184 0.11155
						CHANNELS 3 Zrotation Yrotation Xrotation
						JOINT Head
						{
							OFFSET -0.02412 1.66997 -0.22040
							CHANNELS 3 Zrotation Yrotation Xrotation
							End Site
							{
								OFFSET -0.01026 1.69043 -0.08683
							}
						}
					}
				}
				JOINT LeftShoulder
				{
					OFFSET 0 0 0
					CHANNELS 3 Zrotation Yrotation Xrotation
					JOINT LeftArm
					{
						OFFSET 3.97941 0.74048 0.81462
						CHANNELS 3 Zrotation Yrotation Xrotation
						JOINT LeftForeArm
						{
							OFFSET 5.01834 -0.00000 -0.00000
							CHANNELS 3 Zrotation Yrotation Xrotation
							JOINT LeftHand
							{
								OFFSET 3.48690 -0.00000 0.00000
								CHANNELS 3 Zrotation Yrotation Xrotation
								JOINT LeftFingerBase
								{
									OFFSET 0 0 0
									CHANNELS 3 Zrotation Yrotation Xrotation
									JOINT LeftHandIndex1
									{
										OFFSET 0.76799 -0.00000 0.00000
										CHANNELS 3 Zrotation Yrotation Xrotation
										End Site
										{
											OFFSET 0.61917 -0.00000 0.00000
										}
									}
								}
								JOINT LThumb
								{
									OFFSET 0 0 0
									CHANNELS 3 Zrotation Yrotation Xrotation
									End Site
									{
										OFFSET 0.62863 -0.00000 0.62863
									}
								}
							}
						}
					}
				}
				JOINT RightShoulder
				{
					OFFSET 0 0 0
					CHANNELS 3 Zrotation Yrotation Xrotation
					JOINT RightArm
					{
						OFFSET -3.88702 1.02123 0.44091
						CHANNELS 3 Zrotation Yrotation Xrotation
						JOINT RightForeArm
						{
							OFFSET -4.70164 -0.00000 0.00000
							CHANNELS 3 Zrotation Yrotation Xrotation
							JOINT RightHand
							{
								OFFSET -3.49911 -0.00000 0.00000
								CHANNELS 3 Zrotation Yrotation Xrotation
								JOINT RightFingerBase
								{
									OFFSET 0 0 0
									CHANNELS 3 Zrotation Yrotation Xrotation
									JOINT RightHandIndex1
									{
										OFFSET -0.73933 -0.00000 0.00000
										CHANNELS 3 Zrotation Yrotation Xrotation
										End Site
										{
											OFFSET -0.59607 -0.00000 0.00000
										}
									}
								}
								JOINT RThumb
								{
									OFFSET 0 0 0
									CHANNELS 3 Zrotation Yrotation Xrotation
									End Site
									{
										OFFSET -0.60517 -0.00000 0.60517
									}
								}
							}
						}
					}
				}
			}
		}
	}
}
MOTION
Frames: 11
Frame Time: .0083333
-1.7054 17.0540 -1.5695 366.1550 6.7612 1088.6700 0.0000 0.0000 0.0000 -28.6804 -15.2717 -20.8561 4.3335 12.5914 37.8576 1.7643 -1.9912 -24.5724 2.8736 -10.4876 -30.5707 0.0000 0.0000 0.0000 3.8352 1.1106 -28.9611 -7.1180 -15.4305 49.3193 0.2597 -11.9767 -12.8261 -2.8336 10.4208 -30.3503 -5.5885 -9.9224 8.2783 1.5322 -13.8160 -3.2872 6.3266 -6.5394 -6.3550 -16.7107 -6.1447 -13.1534 12.5875 -7.8753 22.0085 6.2842 -3.7554 10.3793 -0.0000 0.0000 0.0000 -97.7634 -26.0599 43.2383 25.1757 -36.3830 -8.3939 -0.0000 0.0000 -53.1392 44.5951 32.8145 28.1163 -7.1250 0.0000 -0.0000 20.6669 71.1810 13.0686 -0.0000 0.0000 0.0000 65.2432 -8.7109 34.5607 -103.3390 59.3169 -71.5254 0.0000 -0.0000 -21.2381 -90.5608 16.2938 -91.9981 7.1250 -0.0000 -0.0000 -114.9814 56.4813 -154.5220
-1.7447 17.0200 -1.7014 366.5200 7.6235 1088.6500 0.0000 0.0000 0.0000 -28.8999 -16.3158 -21.2727 4.4747 12.7666 38.5011 1.7442 -2.0285 -24.4186 3.0504 -10.7763 -31.5290 0.0000 0.0000 0.0000 3.6947 2.3394 -29.0725 -8.3880 -16.3973 53.9484 0.1647 -10.4065 -11.8306 -3.8781 11.9964 -35.7194 -6.3878 -10.0172 8.4385 1.2765 -14.0621 -3.3200 6.5183 -6.6309 -6.3300 -16.7045 -5.7378 -13.8557 12.2834 -7.1754 22.9602 6.3012 -3.4566 10.7284 -0.0000 0.0000 0.0000 -98.6287 -28.1208 41.5498 23.5238 -34.6567 -7.4340 -0.0000 0.0000 -51.2488 44.6408 32.7018 28.0815 -7.1250 0.0000 -0.0000 20.7381 71.0703 13.0646 -0.0000 0.0000 0.0000 65.6541 -10.4214 37.4624 -106.9778 58.8823 -74.6480 0.0000 -0.0000 -20.2160 -93.6313 15.9841 -102.9780 7.1250 -0.0000 -0.0000 -127.4519 50.9702 -169.8533
-1.7848 16.9918 -1.8314 366.8260 8.7025 1088.4700 0.0000 0.0000 0.0000 -29.1260 -17.1868 -21.3410 4.5578 12.8679 38.8758 1.7264 -2.2929 -24.2261 3.1915 -10.9988 -32.2758 0.0000 0.0000 0.0000 3.6210 3.3400 -28.4927 -9.5333 -17.1389 57.9169 0.0737 -8.5315 -10.6054 -4.7090 13.0484 -39.5498 -6.9075 -10.1202 8.8076 0.9926 -14.3073 -3.3477 6.5875 -6.7203 -6.4867 -16.6319 -5.3078 -14.4830 11.9282 -6.4460 23.8933 6.2957 -3.1523 11.0549 -0.0000 0.0000 0.0000 -99.4139 -29.7236 39.7860 22.2399 -33.2471 -6.7169 -0.0000 0.0000 -48.8681 43.6196 32.4908 27.1072 -7.1250 0.0000 -0.0000 18.7165 70.5117 11.5320 -0.0000 0.0000 0.0000 66.0265 -12.4851 40.3228 -109.9925 58.4345 -77.2230 0.0000 -0.0000 -18.9410 -96.8544 15.3861 -114.3730 7.1250 -0.0000 -0.0000 -136.8304 43.4825 177.9633
-1.8311 16.9692 -1.9610 367.0280 10.0401 1088.2000 0.0000 0.0000 0.0000 -29.2571 -18.1483 -21.1599 4.6044 12.9239 39.0844 1.6999 -2.6528 -23.9522 3.3524 -11.2448 -33.1101 0.0000 0.0000 0.0000 3.7349 4.1269 -27.3281 -10.4614 -17.6613 61.0197 0.0059 -6.6600 -9.3532 -5.2485 13.6583 -41.8857 -7.0799 -10.2687 9.2671 0.6642 -14.5872 -3.3762 6.4666 -6.8313 -6.7832 -16.6356 -4.8708 -15.0268 11.6461 -5.7051 24.7676 6.3354 -2.8494 11.3548 0.0000 0.0000 0.0000 -99.9801 -30.8553 37.9730 21.3063 -32.1841 -6.2123 -0.0000 0.0000 -46.0812 41.9970 32.3151 25.7007 -7.1250 0.0000 -0.0000 15.7132 69.8018 9.4015 0.0000 0.0000 0.0000 66.4544 -14.6985 43.1793 -112.1381 58.0647 -79.0475 0.0000 -0.0000 -17.3537 -100.1010 14.5772 -125.2912 7.1250 -0.0000 -0.0000 -143.2827 35.0739 169.0709
-1.8823 16.9499 -2.0888 367.2090 11.4301 1088.0400 0.0000 0.0000 0.0000 -29.3443 -19.2455 -21.0568 4.6401 12.9666 39.2437 1.6589 -2.9703 -23.5834 3.5248 -11.4996 -33.9840 0.0000 0.0000 0.0000 3.8241 4.7562 -25.9196 -11.1685 -18.0166 63.3277 -0.0377 -4.7204 -7.9270 -5.6324 14.0624 -43.4878 -7.0950 -10.3583 9.4712 0.2902 -14.7508 -3.3507 6.1537 -6.9046 -6.9453 -16.5602 -4.5272 -15.6575 11.3834 -5.1060 25.7219 6.3553 -2.6064 11.7333 -0.0000 -0.0000 0.0000 -100.4371 -31.7491 36.5470 20.6278 -31.3912 -5.8548 -0.0000 0.0000 -43.5385 40.5826 31.7325 24.2525 -7.1250 0.0000 -0.0000 13.3027 68.7044 7.6131 -0.0000 -0.0000 0.0000 67.0293 -17.0383 46.3799 -114.3650 57.6335 -80.9331 0.0000 -0.0000 -16.9628 -105.0690 11.2121 -144.1636 7.1250 -0.0000 -0.0000 -149.4536 18.9686 157.6222
-1.9375 16.9372 -2.2137 367.3720 12.8432 1087.9300 0.0000 0.0000 0.0000 -29.3970 -20.3773 -20.9764 4.6607 12.9911 39.3353 1.6161 -3.3836 -23.1849 3.6255 -11.6447 -34.4863 0.0000 0.0000 0.0000 3.9615 5.1643 -24.2203 -11.6219 -18.2262 64.7853 -0.0536 -3.1562 -6.6533 -5.9301 14.3603 -44.7006 -6.9759 -10.3841 9.4796 -0.1264 -14.7959 -3.2645 5.6748 -6.9374 -6.9923 -16.4020 -4.2652 -16.3632 11.1153 -4.6299 26.7492 6.3485 -2.4169 12.1852 -0.0000 0.0000 0.0000 -100.7917 -32.4328 35.2286 20.1393 -30.8098 -5.6025 -0.0000 0.0000 -41.6670 39.5661 31.2470 23.2005 -7.1250 0.0000 -0.0000 11.7019 67.8454 6.4598 -0.0000 0.0000 0.0000 67.7506 -19.4427 49.7608 -116.2922 57.2196 -82.5572 0.0000 -0.0000 -17.1493 -110.4535 6.1882 -163.8795 7.1250 -0.0000 -0.0000 -152.7480 -0.1658 148.9121
-1.9965 16.9289 -2.3382 367.4240 14.3035 1087.8300 0.0000 0.0000 0.0000 -29.3335 -21.4593 -20.8356 4.6409 12.9676 39.2475 1.5696 -3.9216 -22.7424 3.6743 -11.7138 -34.7270 0.0000 0.0000 0.0000 4.2629 5.4375 -22.1990 -11.8233 -18.3149 65.4275 -0.0693 -1.1926 -5.5627 -5.8876 14.3186 -44.5291 -6.6279 -10.3191 9.3700 -0.5602 -14.6800 -3.1286 5.0241 -6.9067 -6.9981 -16.0415 -4.0667 -16.8694 10.7594 -4.2984 27.6002 6.2412 -2.2849 12.5542 0.0000 0.0000 0.0000 -100.9027 -32.8251 34.4821 19.8979 -30.5192 -5.4794 -0.0000 0.0000 -40.6919 38.7527 31.0763 22.5051 -7.1250 0.0000 -0.0000 10.4467 67.4040 5.6558 0.0000 0.0000 0.0000 68.6766 -21.7234 52.0170 -117.0240 57.0522 -83.1719 0.0000 -0.0000 -14.3984 -113.7875 5.7083 -167.2842 7.1250 -0.0000 -0.0000 -154.4373 -4.9450 149.2057
-2.0621 16.9269 -2.4651 367.4200 15.6616 1087.6100 0.0000 0.0000 0.0000 -29.2415 -22.2578 -20.5013 4.5507 12.8592 38.8436 1.4973 -4.7007 -22.0812 3.6604 -11.6942 -34.6587 0.0000 0.0000 0.0000 4.7274 5.6259 -19.8115 -11.7528 -18.2842 65.2032 -0.0695 0.8224 -4.7558 -6.2493 14.6656 -45.9742 -6.1906 -10.1043 9.3121 -1.0316 -14.3554 -2.9111 4.2745 -6.7801 -6.9940 -15.4881 -3.9370 -17.2609 10.3204 -4.1102 28.3075 6.0355 -2.2054 12.8670 -0.0000 0.0000 0.0000 -100.7318 -32.9552 34.4926 19.8981 -30.5193 -5.4795 -0.0000 0.0000 -40.4839 38.6344 29.9716 21.7665 -7.1250 0.0000 -0.0000 10.4647 66.1350 5.3618 -0.0000 0.0000 0.0000 69.7459 -23.8656 53.3215 -116.9936 57.0592 -83.1463 0.0000 -0.0000 -9.3728 -116.0037 8.2759 -163.5601 7.1250 -0.0000 -0.0000 -156.1694 -2.4088 152.7545
-2.1317 16.9294 -2.5959 367.4860 17.2731 1087.7200 0.0000 0.0000 0.0000 -29.1171 -23.2852 -20.3706 4.4299 12.7116 38.2981 1.3935 -5.9944 -21.1549 3.4820 -11.4372 -33.7688 0.0000 0.0000 0.0000 5.1907 5.5270 -17.4842 -11.3995 -18.1251 64.0722 -0.0391 2.9235 -3.7950 -6.5523 14.9430 -47.1601 -5.5340 -10.0112 9.0367 -1.4997 -14.1668 -2.8739 3.4126 -6.7240 -7.0921 -15.0740 -3.7768 -17.5172 10.0545 -3.9103 29.0193 5.9270 -2.1179 13.1653 -0.0000 0.0000 0.0000 -100.1674 -32.6966 34.4522 20.1015 -30.7644 -5.5831 -0.0000 0.0000 -40.5669 36.7524 28.9676 19.8844 -7.1250 0.0000 -0.0000 7.9374 64.4540 3.7499 -0.0000 0.0000 0.0000 70.6415 -26.0070 54.7892 -116.4694 57.1796 -82.7061 0.0000 -0.0000 -4.0777 -118.3397 10.9049 -160.6711 7.1250 -0.0000 -0.0000 -158.0194 -0.4044 156.0321
-2.2055 16.9360 -2.7238 367.7290 18.9850 1088.0800 0.0000 0.0000 0.0000 -29.1797 -24.4334 -20.2213 4.2495 12.4852 37.4707 1.2648 -7.2356 -20.0975 3.3113 -11.1827 -32.8986 0.0000 0.0000 0.0000 5.6116 5.0552 -15.0943 -10.7614 -17.8163 62.0042 0.0170 4.5019 -2.4735 -7.1238 15.4352 -49.3409 -4.8184 -9.9237 8.5505 -2.0742 -13.9846 -2.9347 2.3867 -6.6778 -7.2119 -14.6208 -3.5877 -17.5514 9.8926 -3.7452 29.6633 5.8442 -2.0301 13.3993 0.0000 -0.0000 0.0000 -99.1190 -32.0585 34.8737 20.5647 -31.3167 -5.8220 -0.0000 0.0000 -40.7348 36.1505 27.6015 18.7001 -7.1250 0.0000 -0.0000 7.4004 62.7534 3.2004 0.0000 -0.0000 0.0000 72.2267 -27.9857 55.6459 -114.7793 57.5478 -81.2828 0.0000 0.0000 1.9678 -120.5847 13.9206 -157.8517 7.1250 -0.0000 -0.0000 -159.9509 1.9042 159.3048
-2.2937 16.9500 -2.8593 367.9160 20.9694 1088.6000 0.0000 0.0000 0.0000 -29.0694 -25.7327 -20.2659 4.0622 12.2427 36.5961 1.1276 -8.4065 -19.0222 3.2334 -11.0636 -32.4948 0.0000 0.0000 0.0000 6.3017 4.2228 -12.8213 -9.9007 -17.3537 59.1561 0.0606 5.6391 -1.7519 -8.5640 16.5188 -54.5697 -4.0226 -9.8368 8.1494 -2.6117 -13.8121 -3.0967 1.3865 -6.6347 -7.4914 -14.1332 -3.4727 -17.4910 9.8808 -3.7659 30.3497 5.7899 -2.0020 13.6668 0.0000 0.0000 0.0000 -97.7073 -31.1542 35.8500 21.3313 -32.2130 -6.2256 -0.0000 0.0000 -40.9924 36.7562 26.0808 18.1785 -7.1250 0.0000 -0.0000 8.4478 61.2061 3.3479 0.0000 0.0000 0.0000 74.3571 -30.0788 55.9949 -112.1792 58.0572 -79.0824 0.0000 0.0000 6.6302 -122.3454 15.3461 -157.3200 7.1250 -0.0000 -0.0000 -161.2884 2.2224 160.9717
